<svg id="Capa_1" enable-background="new 0 0 512.008 512.008" height="512" viewBox="0 0 512.008 512.008" width="512" xmlns="http://www.w3.org/2000/svg"><g><path d="m502.918 15.799c-3.705-7.409-12.715-10.413-20.124-6.708l-30.793 15.396 13.416 26.832 30.793-15.396c7.409-3.705 10.412-12.714 6.708-20.124z" fill="#61ce5b"/><path d="m337.595 81.689-156.108 195.137-106.883 66.2c-4.414 2.734-7.099 7.556-7.099 12.748 0 11.75 12.9 18.935 22.89 12.749l111.287-68.915 155.225-194.031 108.51-54.257c5.082-2.541 8.292-7.735 8.292-13.416 0-11.151-11.734-18.403-21.708-13.416z" fill="#94e368"/><path d="m485.866 179.132-30.412 7.604 7.276 29.104 30.413-7.604c6.677-1.669 11.362-7.669 11.362-14.552-.001-9.759-9.172-16.919-18.639-14.552z" fill="#9255e3"/><path d="m341.168 215.309-155.98 155.979-106.79 33.068c-6.242 1.933-10.757 7.574-10.891 14.107-.21 10.267 9.676 17.663 19.426 14.645l114.22-35.357 155.353-155.354 106.224-26.558c6.677-1.669 11.362-7.669 11.362-14.552 0-9.759-9.171-16.919-18.638-14.552z" fill="#ae7df0"/><path d="m504.5 467.008h-459.5v-459.5c0-4.143-3.358-7.5-7.5-7.5h-30c-4.142 0-7.5 3.357-7.5 7.5s3.358 7.5 7.5 7.5h22.5v23.917h-7.5c-4.142 0-7.5 3.357-7.5 7.5s3.358 7.5 7.5 7.5h7.5v23.916h-22.5c-4.142 0-7.5 3.357-7.5 7.5s3.358 7.5 7.5 7.5h22.5v23.917h-7.5c-4.142 0-7.5 3.357-7.5 7.5s3.358 7.5 7.5 7.5h7.5v23.917h-22.5c-4.142 0-7.5 3.357-7.5 7.5s3.358 7.5 7.5 7.5h22.5v23.916h-7.5c-4.142 0-7.5 3.357-7.5 7.5s3.358 7.5 7.5 7.5h7.5v23.917h-22.5c-4.142 0-7.5 3.357-7.5 7.5s3.358 7.5 7.5 7.5h22.5v23.917h-7.5c-4.142 0-7.5 3.357-7.5 7.5s3.358 7.5 7.5 7.5h7.5v23.916h-22.5c-4.142 0-7.5 3.357-7.5 7.5s3.358 7.5 7.5 7.5h22.5v23.917h-7.5c-4.142 0-7.5 3.357-7.5 7.5s3.358 7.5 7.5 7.5h7.5v23.917h-22.5c-4.142 0-7.5 3.357-7.5 7.5s3.358 7.5 7.5 7.5h22.5v23.916h-7.5c-4.142 0-7.5 3.357-7.5 7.5s3.358 7.5 7.5 7.5h7.5v23.917h-22.5c-4.142 0-7.5 3.357-7.5 7.5s3.358 7.5 7.5 7.5h22.5v22.5c0 4.143 3.358 7.5 7.5 7.5s7.5-3.357 7.5-7.5v-22.5h23.917v7.5c0 4.143 3.358 7.5 7.5 7.5s7.5-3.357 7.5-7.5v-7.5h23.917v22.5c0 4.143 3.358 7.5 7.5 7.5s7.5-3.357 7.5-7.5v-22.5h23.917v7.5c0 4.143 3.358 7.5 7.5 7.5s7.5-3.357 7.5-7.5v-7.5h23.917v22.5c0 4.143 3.358 7.5 7.5 7.5s7.5-3.357 7.5-7.5v-22.5h23.917v7.5c0 4.143 3.358 7.5 7.5 7.5s7.5-3.357 7.5-7.5v-7.5h23.915v22.5c0 4.143 3.357 7.5 7.5 7.5s7.5-3.357 7.5-7.5v-22.5h23.917v7.5c0 4.143 3.357 7.5 7.5 7.5s7.5-3.357 7.5-7.5v-7.5h23.916v22.5c0 4.143 3.357 7.5 7.5 7.5s7.5-3.357 7.5-7.5v-22.5h23.917v7.5c0 4.143 3.357 7.5 7.5 7.5s7.5-3.357 7.5-7.5v-7.5h23.917v22.5c0 4.143 3.357 7.5 7.5 7.5s7.5-3.357 7.5-7.5v-22.5h23.916v7.5c0 4.143 3.357 7.5 7.5 7.5s7.5-3.357 7.5-7.5v-7.5h23.917v22.5c0 4.143 3.357 7.5 7.5 7.5s7.5-3.357 7.5-7.5v-30c0-4.142-3.357-7.5-7.5-7.5z"/><path d="m71.55 375.43c3.46 1.927 7.214 2.887 10.959 2.887 4.084 0 8.158-1.142 11.829-3.415l111.287-68.915c.728-.45 1.373-1.022 1.908-1.69l154.195-192.745 54.981-27.49c3.704-1.853 5.206-6.357 3.354-10.063-1.852-3.704-6.354-5.205-10.063-3.354l-56.454 28.227c-.971.485-1.824 1.176-2.502 2.022l-154.415 193.022-110.188 68.234c-3.379 2.091-6.435.82-7.593.176-1.157-.645-3.848-2.572-3.848-6.548 0-2.614 1.327-4.996 3.549-6.372l106.883-66.2c.728-.45 1.373-1.022 1.907-1.69l155.079-193.851 143.726-71.861c1.792-.897 3.826-1.038 5.726-.407 1.9.634 3.44 1.97 4.336 3.762 1.85 3.698.345 8.212-3.354 10.062l-55.875 27.938c-3.704 1.853-5.206 6.357-3.354 10.063 1.852 3.705 6.357 5.205 10.063 3.354l55.875-27.938c5.375-2.688 9.382-7.308 11.282-13.009 1.9-5.702 1.468-11.803-1.221-17.177-2.687-5.376-7.307-9.383-13.009-11.283-5.702-1.901-11.802-1.468-17.178 1.221l-145.198 72.595c-.971.485-1.824 1.176-2.502 2.022l-155.301 194.127-105.783 65.52c-6.669 4.13-10.651 11.279-10.651 19.124 0 8.278 4.318 15.625 11.55 19.652z"/><path d="m69.146 436.893c3.942 2.907 8.563 4.409 13.281 4.409 2.239 0 4.5-.339 6.72-1.025l114.22-35.356c1.165-.361 2.224-1 3.085-1.861l153.884-153.886 134.622-33.657c10.034-2.51 17.042-11.487 17.042-21.829 0-6.978-3.154-13.441-8.653-17.735-5.5-4.294-12.534-5.786-19.304-4.093l-144.698 36.177c-1.318.33-2.522 1.012-3.484 1.973l-154.668 154.667-105.352 32.623c-9.475 2.934-15.841 11.57-15.841 21.488 0 7.221 3.334 13.82 9.146 18.105zm11.132-25.264 107.125-33.172c1.165-.36 2.223-.999 3.085-1.86l154.511-154.511 142.684-35.673c2.257-.564 4.601-.067 6.434 1.364s2.885 3.585 2.885 5.911c0 3.447-2.336 6.439-5.681 7.275l-136.637 34.161c-1.318.33-2.522 1.012-3.484 1.973l-154.042 154.043-112.447 34.807c-2.299.715-4.727.302-6.664-1.127-1.936-1.428-3.047-3.626-3.047-6.032 0-3.305 2.121-6.182 5.278-7.159z"/></g></svg>